<svg xmlns="http://www.w3.org/2000/svg" width="46" height="48" fill="none"><path fill="#0F0C22" fill-rule="evenodd" d="M14.251 2.729a17.665 17.665 0 0 1 17.498 0L37.25 5.87C42.665 8.962 46 14.675 46 20.858v6.284c0 6.183-3.335 11.896-8.749 14.987l-5.502 3.142a17.665 17.665 0 0 1-17.498 0L8.75 42.13C3.335 39.038 0 33.325 0 27.142v-6.284C0 14.675 3.335 8.962 8.749 5.87l5.502-3.142Zm4.53 7.425A316.073 316.073 0 0 0 15.834 10V10.01l-.002.014v.034a8.946 8.946 0 0 0-.004.387c.001.238.012.56.046.946.067.767.225 1.823.596 2.99.746 2.347 2.413 5.285 5.999 6.995 1.686.805 2.498 2.15 2.913 3.456.21.66.302 1.273.341 1.719a6.524 6.524 0 0 1 .025.594v.007-.02l.001-.003s0-.002 2.948.154 2.948.155 2.948.153v-.022l.002-.034.003-.096c.002-.075.003-.173.002-.292a12.4 12.4 0 0 0-.048-.946 13.967 13.967 0 0 0-.595-2.99c-.746-2.347-2.413-5.284-6-6.995-1.686-.804-2.497-2.15-2.912-3.455a8.08 8.08 0 0 1-.342-1.719 6.528 6.528 0 0 1-.025-.594v-.007.022c0 .001 0 .003-2.949-.153Zm-2.826 9.889c-2.947-.156-2.947-.155-2.948-.154v.023l-.002.034a8.946 8.946 0 0 0-.004.387c.002.238.013.56.047.946.067.768.225 1.824.596 2.99.745 2.348 2.413 5.285 5.998 6.995 1.687.805 2.498 2.15 2.913 3.456.21.66.303 1.273.342 1.719a6.47 6.47 0 0 1 .025.594v.007c0 .001 0 0 0 0v-.022c0-.002.001-.003 2.949.153 2.947.156 2.948.155 2.948.154v-.023l.002-.034.002-.05a11.89 11.89 0 0 0 .002-.338c-.002-.237-.013-.559-.047-.946a13.957 13.957 0 0 0-.596-2.99c-.745-2.347-2.413-5.284-5.999-6.995-1.686-.804-2.497-2.149-2.913-3.455a8.08 8.08 0 0 1-.341-1.719 6.583 6.583 0 0 1-.025-.594v-.007.022c-.001.002-.001.003-2.949-.153Z" clip-rule="evenodd"/></svg>